<?xml version="1.0" encoding="UTF-8"?>
<svg width="1000px" height="347px" viewBox="0 0 1000 347" version="1.1" xmlns="http://www.w3.org/2000/svg" xmlns:xlink="http://www.w3.org/1999/xlink">
    <!-- Generator: Sketch 52.2 (67145) - http://www.bohemiancoding.com/sketch -->
    <title>machine-learning-code</title>
    <desc>Created with Sketch.</desc>
    <defs>
        <polygon id="path-1" points="0.000125 0.0100923077 39.99 0.0100923077 39.99 40.3689785 0.000125 40.3689785"></polygon>
        <polygon id="path-3" points="0.726981818 0.441323529 2.18152727 0.441323529 2.18152727 1.17610735 0.726981818 1.17610735"></polygon>
        <polygon id="path-5" points="0.722763636 0.720225 2.17730909 0.720225 2.17730909 1.45588235 0.722763636 1.45588235"></polygon>
        <polygon id="path-7" points="0.454545455 0.556729412 1.18661818 0.556729412 1.18661818 2.01261176 0.454545455 2.01261176"></polygon>
        <polygon id="path-9" points="0.722763636 0.549595588 1.45454545 0.549595588 1.45454545 2.00547794 0.722763636 2.00547794"></polygon>
        <polygon id="path-11" points="0.602941176 0.294011594 0.907305882 0.294011594 0.907305882 0.888214493 0.602941176 0.888214493"></polygon>
        <polygon id="path-13" points="0.304364706 0.296923188 0.608970588 0.296923188 0.608970588 0.891126087 0.304364706 0.891126087"></polygon>
        <polygon id="path-15" points="0.236654412 0.294011594 0.839595588 0.294011594 0.839595588 0.594202899 0.236654412 0.594202899"></polygon>
        <polygon id="path-17" points="0.2337 0.58826087 0.836641176 0.58826087 0.836641176 0.888214493 0.2337 0.888214493"></polygon>
    </defs>
    <g id="machine-learning-code" stroke="none" stroke-width="1" fill="none" fill-rule="evenodd">
        <path d="M168.994301,177.948 C176.005927,174.341919 180.808753,167.07779 180.808753,158.686195 C180.808753,146.708854 171.045817,137 158.99886,137 C146.954183,137 137.188967,146.708854 137.188967,158.686195 C137.188967,167.07779 141.991794,174.341919 149.005699,177.948 C135.791657,181.811659 125.812172,193.1315 124,207 L194,207 C192.187828,193.1315 182.208343,181.811659 168.994301,177.948" id="Fill-1" fill="#4A4C54"></path>
        <path d="M118.768,231.952 C115.856,231.952 114,230.272 114,227.024 L114,220.576 L115.968,220.576 L115.968,226.944 C115.968,229.024 117.04,230.128 118.8,230.128 C120.544,230.128 121.616,229.088 121.616,227.024 L121.616,220.576 L123.584,220.576 L123.584,226.928 C123.584,230.272 121.696,231.952 118.768,231.952 Z M128.96,231.936 C127.76,231.936 126.432,231.504 125.376,230.672 L126.24,229.36 C127.168,230.048 128.144,230.4 129.008,230.4 C129.84,230.4 130.32,230.048 130.32,229.488 L130.32,229.456 C130.32,228.8 129.424,228.576 128.432,228.272 C127.184,227.92 125.792,227.408 125.792,225.792 L125.792,225.76 C125.792,224.16 127.12,223.184 128.8,223.184 C129.856,223.184 131.008,223.552 131.904,224.144 L131.136,225.52 C130.32,225.024 129.456,224.72 128.752,224.72 C128,224.72 127.568,225.072 127.568,225.552 L127.568,225.584 C127.568,226.208 128.48,226.464 129.472,226.784 C130.704,227.168 132.096,227.728 132.096,229.248 L132.096,229.28 C132.096,231.056 130.72,231.936 128.96,231.936 Z M137.952,231.968 C135.504,231.968 133.616,230.192 133.616,227.584 L133.616,227.552 C133.616,225.136 135.328,223.152 137.744,223.152 C140.432,223.152 141.792,225.264 141.792,227.696 C141.792,227.872 141.776,228.048 141.76,228.24 L135.552,228.24 C135.76,229.616 136.736,230.384 137.984,230.384 C138.928,230.384 139.6,230.032 140.272,229.376 L141.408,230.384 C140.608,231.344 139.504,231.968 137.952,231.968 Z M135.536,226.96 L139.872,226.96 C139.744,225.712 139.008,224.736 137.728,224.736 C136.544,224.736 135.712,225.648 135.536,226.96 Z M143.744,231.776 L143.744,223.328 L145.68,223.328 L145.68,225.232 C146.208,223.968 147.184,223.104 148.672,223.168 L148.672,225.216 L148.56,225.216 C146.864,225.216 145.68,226.32 145.68,228.56 L145.68,231.776 L143.744,231.776 Z M155.376,231.776 L155.376,220.576 L159.792,220.576 C162.416,220.576 164.048,222.064 164.048,224.32 L164.048,224.352 C164.048,226.864 162.032,228.176 159.568,228.176 L157.344,228.176 L157.344,231.776 L155.376,231.776 Z M157.344,226.4 L159.632,226.4 C161.12,226.4 162.048,225.568 162.048,224.4 L162.048,224.368 C162.048,223.056 161.104,222.368 159.632,222.368 L157.344,222.368 L157.344,226.4 Z M165.84,231.776 L165.84,223.328 L167.776,223.328 L167.776,225.232 C168.304,223.968 169.28,223.104 170.768,223.168 L170.768,225.216 L170.656,225.216 C168.96,225.216 167.776,226.32 167.776,228.56 L167.776,231.776 L165.84,231.776 Z M176.176,231.968 C173.6,231.968 171.696,230 171.696,227.6 L171.696,227.568 C171.696,225.152 173.616,223.152 176.208,223.152 C178.8,223.152 180.704,225.12 180.704,227.536 L180.704,227.568 C180.704,229.968 178.784,231.968 176.176,231.968 Z M176.208,230.272 C177.776,230.272 178.768,229.056 178.768,227.6 L178.768,227.568 C178.768,226.08 177.696,224.848 176.176,224.848 C174.624,224.848 173.632,226.064 173.632,227.536 L173.632,227.568 C173.632,229.04 174.704,230.272 176.208,230.272 Z M183.104,231.776 L183.104,224.992 L182.032,224.992 L182.032,223.376 L183.104,223.376 L183.104,222.752 C183.104,221.824 183.344,221.12 183.792,220.672 C184.24,220.224 184.864,220 185.696,220 C186.368,220 186.832,220.096 187.264,220.224 L187.264,221.856 C186.88,221.728 186.544,221.648 186.128,221.648 C185.392,221.648 185.008,222.048 185.008,222.928 L185.008,223.392 L187.248,223.392 L187.248,224.992 L185.04,224.992 L185.04,231.776 L183.104,231.776 Z M188.8,231.776 L188.8,223.328 L190.736,223.328 L190.736,231.776 L188.8,231.776 Z M188.72,222.032 L188.72,220.192 L190.8,220.192 L190.8,222.032 L188.72,222.032 Z M193.376,231.776 L193.376,220.096 L195.312,220.096 L195.312,231.776 L193.376,231.776 Z M201.712,231.968 C199.264,231.968 197.376,230.192 197.376,227.584 L197.376,227.552 C197.376,225.136 199.088,223.152 201.504,223.152 C204.192,223.152 205.552,225.264 205.552,227.696 C205.552,227.872 205.536,228.048 205.52,228.24 L199.312,228.24 C199.52,229.616 200.496,230.384 201.744,230.384 C202.688,230.384 203.36,230.032 204.032,229.376 L205.168,230.384 C204.368,231.344 203.264,231.968 201.712,231.968 Z M199.296,226.96 L203.632,226.96 C203.504,225.712 202.768,224.736 201.488,224.736 C200.304,224.736 199.472,225.648 199.296,226.96 Z" id="User-Profile" fill="#494B54"></path>
        <path id="Line" d="M728.417969,81.02 L507,81.02 L506.5,81.02 L506.5,80.02 L507,80.02 L728.417969,80.02 L728.417969,76.02 L737.417969,80.52 L728.417969,85.02 L728.417969,81.02 Z" fill="#76787F" fill-rule="nonzero"></path>
        <path id="Line" d="M728.417969,81.02 L507,81.02 L506.5,81.02 L506.5,80.02 L507,80.02 L728.417969,80.02 L728.417969,76.02 L737.417969,80.52 L728.417969,85.02 L728.417969,81.02 Z" fill="#76787F" fill-rule="nonzero"></path>
        <path id="Line" d="M728.417969,172.02 L507,172.02 L506.5,172.02 L506.5,171.02 L507,171.02 L728.417969,171.02 L728.417969,167.02 L737.417969,171.52 L728.417969,176.02 L728.417969,172.02 Z" fill="#76787F" fill-rule="nonzero"></path>
        <path id="Line" d="M728.417969,265.02 L507,265.02 L506.5,265.02 L506.5,264.02 L507,264.02 L728.417969,264.02 L728.417969,260.02 L737.417969,264.52 L728.417969,269.02 L728.417969,265.02 Z" fill="#76787F" fill-rule="nonzero"></path>
        <rect id="Rectangle" fill="#FFFFFF" x="538" y="244" width="158" height="36"></rect>
        <rect id="Rectangle" fill="#FFFFFF" x="586" y="152" width="64" height="41"></rect>
        <rect id="Rectangle" fill="#FFFFFF" x="586" y="59" width="64" height="41"></rect>
        <g id="Group-8" transform="translate(806.000000, 241.000000)">
            <g id="Group-3" transform="translate(0.000000, 0.620614)">
                <mask id="mask-2" fill="white">
                    <use xlink:href="#path-1"></use>
                </mask>
                <g id="Clip-2"></g>
                <path d="M19.995125,0.00984 C8.952,0.00984 0.000125,9.04434769 0.000125,20.1894092 C0.000125,31.3344708 8.952,40.3689785 19.995125,40.3689785 C31.037625,40.3689785 39.990125,31.3344708 39.990125,20.1894092 C39.990125,9.04434769 31.037625,0.00984 19.995125,0.00984" id="Fill-1" fill="#FF0000" mask="url(#mask-2)"></path>
            </g>
            <path d="M28.5113125,12.2152877 L11.4788125,29.4050108" id="Stroke-4" stroke="#FFFFFF" stroke-width="2.52307692"></path>
            <path d="M28.5113125,29.4050108 L11.4788125,12.2152877" id="Stroke-6" stroke="#FFFFFF" stroke-width="2.52307692"></path>
        </g>
        <g id="Group-17" transform="translate(795.000000, 105.000000)">
            <polygon id="Fill-1" fill="#4A4C54" points="59.9970957 2 2 2 2.00580857 95 60 95"></polygon>
            <polygon id="Fill-2" fill="#FFFFFF" points="8 83 54 83 54 14 8 14"></polygon>
            <polygon id="Fill-3" fill="#4A4C54" points="14 77 49 77 49 19 14 19"></polygon>
            <g id="Group-16">
                <g id="Group-6" transform="translate(29.545455, 0.000000)">
                    <mask id="mask-4" fill="white">
                        <use xlink:href="#path-3"></use>
                    </mask>
                    <g id="Clip-5"></g>
                    <path d="M1.45425455,0.455445588 C1.4528,0.455445588 1.44989091,0.452533824 1.44989091,0.448166176 C1.44989091,0.443798529 1.4528,0.440886765 1.45425455,0.440886765 C1.45716364,0.440886765 1.45861818,0.443798529 1.45861818,0.448166176 C1.45861818,0.452533824 1.45716364,0.455445588 1.45425455,0.455445588" id="Fill-4" fill="#4A4C54" mask="url(#mask-4)"></path>
                </g>
                <g id="Group-9" transform="translate(29.545455, 95.088235)">
                    <mask id="mask-6" fill="white">
                        <use xlink:href="#path-5"></use>
                    </mask>
                    <g id="Clip-8"></g>
                    <path d="M1.45003636,1.45544559 C1.44712727,1.45544559 1.44567273,1.45253382 1.44567273,1.44816618 C1.44567273,1.44379853 1.44712727,1.44088676 1.45003636,1.44088676 C1.45149091,1.44088676 1.4544,1.44379853 1.4544,1.44816618 C1.4544,1.45253382 1.45149091,1.45544559 1.45003636,1.45544559" id="Fill-7" fill="#4A4C54" mask="url(#mask-6)"></path>
                </g>
                <g id="Group-12" transform="translate(0.000000, 47.044118)">
                    <mask id="mask-8" fill="white">
                        <use xlink:href="#path-7"></use>
                    </mask>
                    <g id="Clip-11"></g>
                    <path d="M0.459345455,1.29195 C0.456436364,1.29195 0.454981818,1.28903824 0.454981818,1.28467059 C0.454981818,1.28030294 0.456436364,1.27739118 0.459345455,1.27739118 C0.4608,1.27739118 0.463709091,1.28030294 0.463709091,1.28467059 C0.463709091,1.28903824 0.4608,1.29195 0.459345455,1.29195" id="Fill-10" fill="#4A4C54" mask="url(#mask-8)"></path>
                </g>
                <g id="Group-15" transform="translate(60.090909, 47.044118)">
                    <mask id="mask-10" fill="white">
                        <use xlink:href="#path-9"></use>
                    </mask>
                    <g id="Clip-14"></g>
                    <path d="M1.45003636,1.28481618 C1.44712727,1.28481618 1.44567273,1.28190441 1.44567273,1.27753676 C1.44567273,1.27316912 1.44712727,1.27025735 1.45003636,1.27025735 C1.45149091,1.27025735 1.4544,1.27316912 1.4544,1.27753676 C1.4544,1.28190441 1.45149091,1.28481618 1.45003636,1.28481618" id="Fill-13" fill="#4A4C54" mask="url(#mask-10)"></path>
                </g>
            </g>
        </g>
        <g id="Group-17" transform="translate(806.000000, 59.000000)">
            <path d="M20.5029544,1.19583333 C9.85018971,1.19583333 1.21366029,9.70660145 1.21366029,20.2055725 C1.21366029,30.7045435 9.85018971,39.2153116 20.5029544,39.2153116 C31.1563221,39.2153116 39.7922485,30.7045435 39.7922485,20.2055725 C39.7922485,9.70660145 31.1563221,1.19583333 20.5029544,1.19583333" id="Fill-1" fill="#00AD42"></path>
            <polyline id="Stroke-3" stroke="#FFFFFF" stroke-width="2.39999986" points="30.2527544 13.9323348 18.7866221 25.2322913 11.6797544 18.2278275"></polyline>
            <g id="Group-7" transform="translate(0.000000, 19.614578)">
                <mask id="mask-12" fill="white">
                    <use xlink:href="#path-11"></use>
                </mask>
                <g id="Clip-6"></g>
                <path d="M0.60885,0.591113043 C0.60885,0.592895652 0.607644118,0.594084058 0.605835294,0.594084058 C0.604629412,0.594084058 0.602820588,0.592895652 0.602820588,0.591113043 C0.602820588,0.589330435 0.604629412,0.588142029 0.605835294,0.588142029 C0.607644118,0.588142029 0.60885,0.589330435 0.60885,0.591113043" id="Fill-5" fill="#4A4C54" mask="url(#mask-12)"></path>
            </g>
            <g id="Group-10" transform="translate(39.794118, 19.614578)">
                <mask id="mask-14" fill="white">
                    <use xlink:href="#path-13"></use>
                </mask>
                <g id="Clip-9"></g>
                <path d="M0.60885,0.594024638 C0.60885,0.595807246 0.607644118,0.596995652 0.605835294,0.596995652 C0.604026471,0.596995652 0.602820588,0.595807246 0.602820588,0.594024638 C0.602820588,0.592836232 0.604026471,0.591053623 0.605835294,0.591053623 C0.607644118,0.591053623 0.60885,0.592836232 0.60885,0.594024638" id="Fill-8" fill="#4A4C54" mask="url(#mask-14)"></path>
            </g>
            <g id="Group-13" transform="translate(19.897059, 39.223274)">
                <mask id="mask-16" fill="white">
                    <use xlink:href="#path-15"></use>
                </mask>
                <g id="Clip-12"></g>
                <path d="M0.541139706,0.591113043 C0.541139706,0.592895652 0.539933824,0.594084058 0.538125,0.594084058 C0.536919118,0.594084058 0.535110294,0.592895652 0.535110294,0.591113043 C0.535110294,0.589330435 0.536919118,0.588142029 0.538125,0.588142029 C0.539933824,0.588142029 0.541139706,0.589330435 0.541139706,0.591113043" id="Fill-11" fill="#4A4C54" mask="url(#mask-16)"></path>
            </g>
            <g id="Group-16" transform="translate(19.897059, 0.005883)">
                <mask id="mask-18" fill="white">
                    <use xlink:href="#path-17"></use>
                </mask>
                <g id="Clip-15"></g>
                <path d="M0.538185294,0.591113043 C0.538185294,0.592895652 0.536979412,0.594084058 0.535170588,0.594084058 C0.533361765,0.594084058 0.532155882,0.592895652 0.532155882,0.591113043 C0.532155882,0.589330435 0.533361765,0.588142029 0.535170588,0.588142029 C0.536979412,0.588142029 0.538185294,0.589330435 0.538185294,0.591113043" id="Fill-14" fill="#4A4C54" mask="url(#mask-18)"></path>
            </g>
        </g>
        <rect id="Rectangle" fill="#00AD42" x="287" y="57" width="220" height="50" rx="10"></rect>
        <rect id="Rectangle" fill="#FFB401" x="287" y="147" width="220" height="50" rx="10"></rect>
        <rect id="Rectangle" fill="#FF0000" x="287" y="237" width="220" height="50" rx="10"></rect>
        <path d="M287.195312,263 L158,263 L158,244 M158,126.832031 L158,79 L287.195312,79" id="Shape" stroke="#76787F"></path>
        <path d="M187.550725,170.989565 L287,170.989565" id="Line-4" stroke="#76787F" stroke-linecap="square"></path>
        <path d="M352,88.816 L352,76.216 L354.772,76.216 L354.772,86.296 L361.054,86.296 L361.054,88.816 L352,88.816 Z M368.542,89.032 C364.654,89.032 361.864,86.134 361.864,82.552 L361.864,82.516 C361.864,78.934 364.69,76 368.578,76 C372.466,76 375.256,78.898 375.256,82.48 L375.256,82.516 C375.256,86.098 372.43,89.032 368.542,89.032 Z M368.578,86.476 C370.81,86.476 372.358,84.712 372.358,82.552 L372.358,82.516 C372.358,80.356 370.774,78.556 368.542,78.556 C366.31,78.556 364.762,80.32 364.762,82.48 L364.762,82.516 C364.762,84.676 366.346,86.476 368.578,86.476 Z M380.332,88.906 L376.03,76.216 L379,76.216 L381.61,84.748 L384.436,76.18 L386.812,76.18 L389.638,84.748 L392.248,76.216 L395.146,76.216 L390.844,88.906 L388.432,88.906 L385.588,80.662 L382.744,88.906 L380.332,88.906 Z M402.598,88.816 L402.598,76.216 L408.358,76.216 C409.96,76.216 411.202,76.666 412.03,77.494 C412.732,78.196 413.11,79.186 413.11,80.374 L413.11,80.41 C413.11,82.444 412.012,83.722 410.41,84.316 L413.488,88.816 L410.248,88.816 L407.548,84.784 L405.37,84.784 L405.37,88.816 L402.598,88.816 Z M405.37,82.336 L408.178,82.336 C409.528,82.336 410.302,81.616 410.302,80.554 L410.302,80.518 C410.302,79.33 409.474,78.718 408.124,78.718 L405.37,78.718 L405.37,82.336 Z M415.738,88.816 L415.738,76.216 L418.51,76.216 L418.51,88.816 L415.738,88.816 Z M426.142,88.996 C424.234,88.996 422.308,88.33 420.796,86.98 L422.434,85.018 C423.568,85.954 424.756,86.548 426.196,86.548 C427.33,86.548 428.014,86.098 428.014,85.36 L428.014,85.324 C428.014,84.622 427.582,84.262 425.476,83.722 C422.938,83.074 421.3,82.372 421.3,79.87 L421.3,79.834 C421.3,77.548 423.136,76.036 425.71,76.036 C427.546,76.036 429.112,76.612 430.39,77.638 L428.95,79.726 C427.834,78.952 426.736,78.484 425.674,78.484 C424.612,78.484 424.054,78.97 424.054,79.582 L424.054,79.618 C424.054,80.446 424.594,80.716 426.772,81.274 C429.328,81.94 430.768,82.858 430.768,85.054 L430.768,85.09 C430.768,87.592 428.86,88.996 426.142,88.996 Z M433.18,88.816 L433.18,76.216 L435.952,76.216 L435.952,81.724 L441.064,76.216 L444.412,76.216 L439.282,81.562 L444.646,88.816 L441.316,88.816 L437.41,83.452 L435.952,84.964 L435.952,88.816 L433.18,88.816 Z" id="LOW-RISK" fill="#FFFFFF"></path>
        <path d="M336,179.78 L336,167.18 L338.988,167.18 L342.3,172.508 L345.612,167.18 L348.6,167.18 L348.6,179.78 L345.846,179.78 L345.846,171.554 L342.3,176.936 L342.228,176.936 L338.718,171.608 L338.718,179.78 L336,179.78 Z M351.624,179.78 L351.624,167.18 L361.128,167.18 L361.128,169.646 L354.378,169.646 L354.378,172.202 L360.318,172.202 L360.318,174.668 L354.378,174.668 L354.378,177.314 L361.218,177.314 L361.218,179.78 L351.624,179.78 Z M363.684,179.78 L363.684,167.18 L368.598,167.18 C372.558,167.18 375.294,169.898 375.294,173.444 L375.294,173.48 C375.294,177.026 372.558,179.78 368.598,179.78 L363.684,179.78 Z M368.598,169.682 L366.456,169.682 L366.456,177.278 L368.598,177.278 C370.866,177.278 372.396,175.748 372.396,173.516 L372.396,173.48 C372.396,171.248 370.866,169.682 368.598,169.682 Z M377.886,179.78 L377.886,167.18 L380.658,167.18 L380.658,179.78 L377.886,179.78 Z M389.064,179.978 C385.68,179.978 383.61,178.088 383.61,174.38 L383.61,167.18 L386.382,167.18 L386.382,174.308 C386.382,176.36 387.408,177.422 389.1,177.422 C390.792,177.422 391.818,176.396 391.818,174.398 L391.818,167.18 L394.59,167.18 L394.59,174.29 C394.59,178.106 392.448,179.978 389.064,179.978 Z M397.416,179.78 L397.416,167.18 L400.404,167.18 L403.716,172.508 L407.028,167.18 L410.016,167.18 L410.016,179.78 L407.262,179.78 L407.262,171.554 L403.716,176.936 L403.644,176.936 L400.134,171.608 L400.134,179.78 L397.416,179.78 Z M418.44,179.78 L418.44,167.18 L424.2,167.18 C425.802,167.18 427.044,167.63 427.872,168.458 C428.574,169.16 428.952,170.15 428.952,171.338 L428.952,171.374 C428.952,173.408 427.854,174.686 426.252,175.28 L429.33,179.78 L426.09,179.78 L423.39,175.748 L421.212,175.748 L421.212,179.78 L418.44,179.78 Z M421.212,173.3 L424.02,173.3 C425.37,173.3 426.144,172.58 426.144,171.518 L426.144,171.482 C426.144,170.294 425.316,169.682 423.966,169.682 L421.212,169.682 L421.212,173.3 Z M431.58,179.78 L431.58,167.18 L434.352,167.18 L434.352,179.78 L431.58,179.78 Z M441.984,179.96 C440.076,179.96 438.15,179.294 436.638,177.944 L438.276,175.982 C439.41,176.918 440.598,177.512 442.038,177.512 C443.172,177.512 443.856,177.062 443.856,176.324 L443.856,176.288 C443.856,175.586 443.424,175.226 441.318,174.686 C438.78,174.038 437.142,173.336 437.142,170.834 L437.142,170.798 C437.142,168.512 438.978,167 441.552,167 C443.388,167 444.954,167.576 446.232,168.602 L444.792,170.69 C443.676,169.916 442.578,169.448 441.516,169.448 C440.454,169.448 439.896,169.934 439.896,170.546 L439.896,170.582 C439.896,171.41 440.436,171.68 442.614,172.238 C445.17,172.904 446.61,173.822 446.61,176.018 L446.61,176.054 C446.61,178.556 444.702,179.96 441.984,179.96 Z M449.022,179.78 L449.022,167.18 L451.794,167.18 L451.794,172.688 L456.906,167.18 L460.254,167.18 L455.124,172.526 L460.488,179.78 L457.158,179.78 L453.252,174.416 L451.794,175.928 L451.794,179.78 L449.022,179.78 Z" id="MEDIUM-RISK" fill="#FFFFFF"></path>
        <path d="M351,268.816 L351,256.216 L353.772,256.216 L353.772,261.202 L358.884,261.202 L358.884,256.216 L361.656,256.216 L361.656,268.816 L358.884,268.816 L358.884,263.758 L353.772,263.758 L353.772,268.816 L351,268.816 Z M364.806,268.816 L364.806,256.216 L367.578,256.216 L367.578,268.816 L364.806,268.816 Z M376.794,269.032 C372.87,269.032 370.17,266.278 370.17,262.552 L370.17,262.516 C370.17,258.934 372.96,256 376.776,256 C379.044,256 380.412,256.612 381.726,257.728 L379.98,259.834 C379.008,259.024 378.144,258.556 376.686,258.556 C374.67,258.556 373.068,260.338 373.068,262.48 L373.068,262.516 C373.068,264.82 374.652,266.512 376.884,266.512 C377.892,266.512 378.792,266.26 379.494,265.756 L379.494,263.956 L376.704,263.956 L376.704,261.562 L382.176,261.562 L382.176,267.034 C380.88,268.132 379.098,269.032 376.794,269.032 Z M384.84,268.816 L384.84,256.216 L387.612,256.216 L387.612,261.202 L392.724,261.202 L392.724,256.216 L395.496,256.216 L395.496,268.816 L392.724,268.816 L392.724,263.758 L387.612,263.758 L387.612,268.816 L384.84,268.816 Z M403.92,268.816 L403.92,256.216 L409.68,256.216 C411.282,256.216 412.524,256.666 413.352,257.494 C414.054,258.196 414.432,259.186 414.432,260.374 L414.432,260.41 C414.432,262.444 413.334,263.722 411.732,264.316 L414.81,268.816 L411.57,268.816 L408.87,264.784 L406.692,264.784 L406.692,268.816 L403.92,268.816 Z M406.692,262.336 L409.5,262.336 C410.85,262.336 411.624,261.616 411.624,260.554 L411.624,260.518 C411.624,259.33 410.796,258.718 409.446,258.718 L406.692,258.718 L406.692,262.336 Z M417.06,268.816 L417.06,256.216 L419.832,256.216 L419.832,268.816 L417.06,268.816 Z M427.464,268.996 C425.556,268.996 423.63,268.33 422.118,266.98 L423.756,265.018 C424.89,265.954 426.078,266.548 427.518,266.548 C428.652,266.548 429.336,266.098 429.336,265.36 L429.336,265.324 C429.336,264.622 428.904,264.262 426.798,263.722 C424.26,263.074 422.622,262.372 422.622,259.87 L422.622,259.834 C422.622,257.548 424.458,256.036 427.032,256.036 C428.868,256.036 430.434,256.612 431.712,257.638 L430.272,259.726 C429.156,258.952 428.058,258.484 426.996,258.484 C425.934,258.484 425.376,258.97 425.376,259.582 L425.376,259.618 C425.376,260.446 425.916,260.716 428.094,261.274 C430.65,261.94 432.09,262.858 432.09,265.054 L432.09,265.09 C432.09,267.592 430.182,268.996 427.464,268.996 Z M434.502,268.816 L434.502,256.216 L437.274,256.216 L437.274,261.724 L442.386,256.216 L445.734,256.216 L440.604,261.562 L445.968,268.816 L442.638,268.816 L438.732,263.452 L437.274,264.964 L437.274,268.816 L434.502,268.816 Z" id="HIGH-RISK" fill="#FFFFFF"></path>
        <path d="M604.256,86.996 C602.33,86.996 600.512,86.33 599,84.98 L600.332,83.396 C601.538,84.44 602.762,85.034 604.31,85.034 C605.678,85.034 606.542,84.386 606.542,83.45 L606.542,83.414 C606.542,82.514 606.038,82.028 603.698,81.488 C601.016,80.84 599.504,80.048 599.504,77.726 L599.504,77.69 C599.504,75.53 601.304,74.036 603.806,74.036 C605.642,74.036 607.1,74.594 608.378,75.62 L607.19,77.294 C606.056,76.448 604.922,75.998 603.77,75.998 C602.474,75.998 601.718,76.664 601.718,77.492 L601.718,77.528 C601.718,78.5 602.294,78.932 604.724,79.508 C607.388,80.156 608.756,81.11 608.756,83.198 L608.756,83.234 C608.756,85.592 606.902,86.996 604.256,86.996 Z M615.596,86.996 C613.67,86.996 611.852,86.33 610.34,84.98 L611.672,83.396 C612.878,84.44 614.102,85.034 615.65,85.034 C617.018,85.034 617.882,84.386 617.882,83.45 L617.882,83.414 C617.882,82.514 617.378,82.028 615.038,81.488 C612.356,80.84 610.844,80.048 610.844,77.726 L610.844,77.69 C610.844,75.53 612.644,74.036 615.146,74.036 C616.982,74.036 618.44,74.594 619.718,75.62 L618.53,77.294 C617.396,76.448 616.262,75.998 615.11,75.998 C613.814,75.998 613.058,76.664 613.058,77.492 L613.058,77.528 C613.058,78.5 613.634,78.932 616.064,79.508 C618.728,80.156 620.096,81.11 620.096,83.198 L620.096,83.234 C620.096,85.592 618.242,86.996 615.596,86.996 Z M628.718,87.032 C624.848,87.032 622.148,84.098 622.148,80.552 L622.148,80.516 C622.148,76.97 624.884,74 628.754,74 C632.624,74 635.324,76.934 635.324,80.48 L635.324,80.516 C635.324,84.062 632.588,87.032 628.718,87.032 Z M628.754,84.98 C631.256,84.98 633.002,83 633.002,80.552 L633.002,80.516 C633.002,78.068 631.22,76.034 628.718,76.034 C626.216,76.034 624.47,78.032 624.47,80.48 L624.47,80.516 C624.47,82.964 626.252,84.98 628.754,84.98 Z" id="SSO" fill="#494B54"></path>
        <path d="M598,177.69 L598,165.09 L600.358,165.09 L604.192,171.048 L608.026,165.09 L610.384,165.09 L610.384,177.69 L608.17,177.69 L608.17,168.654 L604.192,174.594 L604.12,174.594 L600.178,168.69 L600.178,177.69 L598,177.69 Z M613.624,177.69 L613.624,165.09 L623.002,165.09 L623.002,167.106 L615.838,167.106 L615.838,170.544 L622.192,170.544 L622.192,172.56 L615.838,172.56 L615.838,177.69 L613.624,177.69 Z M622.912,177.69 L628.456,165 L630.508,165 L636.052,177.69 L633.712,177.69 L632.434,174.648 L626.476,174.648 L625.18,177.69 L622.912,177.69 Z M627.286,172.686 L631.624,172.686 L629.446,167.646 L627.286,172.686 Z" id="MFA" fill="#494B54"></path>
        <path d="M547,269.14 L552.544,256.45 L554.596,256.45 L560.14,269.14 L557.8,269.14 L556.522,266.098 L550.564,266.098 L549.268,269.14 L547,269.14 Z M551.374,264.136 L555.712,264.136 L553.534,259.096 L551.374,264.136 Z M565.99,269.356 C563.164,269.356 561.076,267.142 561.076,264.442 L561.076,264.406 C561.076,261.706 563.164,259.438 566.026,259.438 C567.808,259.438 568.924,260.104 569.824,261.076 L568.456,262.534 C567.79,261.832 567.088,261.346 566.008,261.346 C564.424,261.346 563.254,262.714 563.254,264.37 L563.254,264.406 C563.254,266.098 564.424,267.448 566.098,267.448 C567.124,267.448 567.88,266.98 568.564,266.278 L569.878,267.574 C568.942,268.618 567.844,269.356 565.99,269.356 Z M575.998,269.356 C573.172,269.356 571.084,267.142 571.084,264.442 L571.084,264.406 C571.084,261.706 573.172,259.438 576.034,259.438 C577.816,259.438 578.932,260.104 579.832,261.076 L578.464,262.534 C577.798,261.832 577.096,261.346 576.016,261.346 C574.432,261.346 573.262,262.714 573.262,264.37 L573.262,264.406 C573.262,266.098 574.432,267.448 576.106,267.448 C577.132,267.448 577.888,266.98 578.572,266.278 L579.886,267.574 C578.95,268.618 577.852,269.356 575.998,269.356 Z M585.97,269.356 C583.216,269.356 581.092,267.358 581.092,264.424 L581.092,264.388 C581.092,261.67 583.018,259.438 585.736,259.438 C588.76,259.438 590.29,261.814 590.29,264.55 C590.29,264.748 590.272,264.946 590.254,265.162 L583.27,265.162 C583.504,266.71 584.602,267.574 586.006,267.574 C587.068,267.574 587.824,267.178 588.58,266.44 L589.858,267.574 C588.958,268.654 587.716,269.356 585.97,269.356 Z M583.252,263.722 L588.13,263.722 C587.986,262.318 587.158,261.22 585.718,261.22 C584.386,261.22 583.45,262.246 583.252,263.722 Z M595.744,269.32 C594.394,269.32 592.9,268.834 591.712,267.898 L592.684,266.422 C593.728,267.196 594.826,267.592 595.798,267.592 C596.734,267.592 597.274,267.196 597.274,266.566 L597.274,266.53 C597.274,265.792 596.266,265.54 595.15,265.198 C593.746,264.802 592.18,264.226 592.18,262.408 L592.18,262.372 C592.18,260.572 593.674,259.474 595.564,259.474 C596.752,259.474 598.048,259.888 599.056,260.554 L598.192,262.102 C597.274,261.544 596.302,261.202 595.51,261.202 C594.664,261.202 594.178,261.598 594.178,262.138 L594.178,262.174 C594.178,262.876 595.204,263.164 596.32,263.524 C597.706,263.956 599.272,264.586 599.272,266.296 L599.272,266.332 C599.272,268.33 597.724,269.32 595.744,269.32 Z M604.582,269.32 C603.232,269.32 601.738,268.834 600.55,267.898 L601.522,266.422 C602.566,267.196 603.664,267.592 604.636,267.592 C605.572,267.592 606.112,267.196 606.112,266.566 L606.112,266.53 C606.112,265.792 605.104,265.54 603.988,265.198 C602.584,264.802 601.018,264.226 601.018,262.408 L601.018,262.372 C601.018,260.572 602.512,259.474 604.402,259.474 C605.59,259.474 606.886,259.888 607.894,260.554 L607.03,262.102 C606.112,261.544 605.14,261.202 604.348,261.202 C603.502,261.202 603.016,261.598 603.016,262.138 L603.016,262.174 C603.016,262.876 604.042,263.164 605.158,263.524 C606.544,263.956 608.11,264.586 608.11,266.296 L608.11,266.332 C608.11,268.33 606.562,269.32 604.582,269.32 Z M615.994,269.14 L615.994,256.54 L621.646,256.54 C623.086,256.54 624.22,256.936 624.94,257.656 C625.498,258.214 625.786,258.898 625.786,259.744 L625.786,259.78 C625.786,261.292 624.922,262.102 623.986,262.588 C625.462,263.092 626.488,263.938 626.488,265.648 L626.488,265.684 C626.488,267.934 624.634,269.14 621.826,269.14 L615.994,269.14 Z M623.572,260.14 L623.572,260.104 C623.572,259.114 622.78,258.502 621.358,258.502 L618.172,258.502 L618.172,261.85 L621.196,261.85 C622.618,261.85 623.572,261.292 623.572,260.14 Z M624.274,265.414 C624.274,264.352 623.428,263.722 621.682,263.722 L618.172,263.722 L618.172,267.178 L621.844,267.178 C623.356,267.178 624.274,266.584 624.274,265.45 L624.274,265.414 Z M628.864,269.14 L628.864,256 L631.042,256 L631.042,269.14 L628.864,269.14 Z M638.404,269.356 C635.506,269.356 633.364,267.142 633.364,264.442 L633.364,264.406 C633.364,261.688 635.524,259.438 638.44,259.438 C641.356,259.438 643.498,261.652 643.498,264.37 L643.498,264.406 C643.498,267.106 641.338,269.356 638.404,269.356 Z M638.44,267.448 C640.204,267.448 641.32,266.08 641.32,264.442 L641.32,264.406 C641.32,262.732 640.114,261.346 638.404,261.346 C636.658,261.346 635.542,262.714 635.542,264.37 L635.542,264.406 C635.542,266.062 636.748,267.448 638.44,267.448 Z M650.104,269.356 C647.278,269.356 645.19,267.142 645.19,264.442 L645.19,264.406 C645.19,261.706 647.278,259.438 650.14,259.438 C651.922,259.438 653.038,260.104 653.938,261.076 L652.57,262.534 C651.904,261.832 651.202,261.346 650.122,261.346 C648.538,261.346 647.368,262.714 647.368,264.37 L647.368,264.406 C647.368,266.098 648.538,267.448 650.212,267.448 C651.238,267.448 651.994,266.98 652.678,266.278 L653.992,267.574 C653.056,268.618 651.958,269.356 650.104,269.356 Z M655.99,269.14 L655.99,256 L658.168,256 L658.168,263.848 L662.11,259.636 L664.756,259.636 L660.976,263.506 L664.882,269.14 L662.326,269.14 L659.518,265.018 L658.168,266.422 L658.168,269.14 L655.99,269.14 Z M670.372,269.356 C667.618,269.356 665.494,267.358 665.494,264.424 L665.494,264.388 C665.494,261.67 667.42,259.438 670.138,259.438 C673.162,259.438 674.692,261.814 674.692,264.55 C674.692,264.748 674.674,264.946 674.656,265.162 L667.672,265.162 C667.906,266.71 669.004,267.574 670.408,267.574 C671.47,267.574 672.226,267.178 672.982,266.44 L674.26,267.574 C673.36,268.654 672.118,269.356 670.372,269.356 Z M667.654,263.722 L672.532,263.722 C672.388,262.318 671.56,261.22 670.12,261.22 C668.788,261.22 667.852,262.246 667.654,263.722 Z M680.812,269.338 C678.58,269.338 676.402,267.556 676.402,264.406 L676.402,264.37 C676.402,261.22 678.544,259.438 680.812,259.438 C682.378,259.438 683.368,260.212 684.052,261.112 L684.052,256 L686.23,256 L686.23,269.14 L684.052,269.14 L684.052,267.556 C683.35,268.546 682.36,269.338 680.812,269.338 Z M681.334,267.448 C682.792,267.448 684.088,266.224 684.088,264.406 L684.088,264.37 C684.088,262.534 682.792,261.328 681.334,261.328 C679.84,261.328 678.598,262.48 678.598,264.37 L678.598,264.406 C678.598,266.242 679.858,267.448 681.334,267.448 Z" id="Access-Blocked" fill="#494B54"></path>
        <path d="M791.09,219.07 L787.016,209.2 L788.92,209.2 L791.874,216.732 L794.814,209.2 L796.676,209.2 L792.616,219.07 L791.09,219.07 Z M800.568,219.168 C798.426,219.168 796.774,217.614 796.774,215.332 L796.774,215.304 C796.774,213.19 798.272,211.454 800.386,211.454 C802.738,211.454 803.928,213.302 803.928,215.43 C803.928,215.584 803.914,215.738 803.9,215.906 L798.468,215.906 C798.65,217.11 799.504,217.782 800.596,217.782 C801.422,217.782 802.01,217.474 802.598,216.9 L803.592,217.782 C802.892,218.622 801.926,219.168 800.568,219.168 Z M798.454,214.786 L802.248,214.786 C802.136,213.694 801.492,212.84 800.372,212.84 C799.336,212.84 798.608,213.638 798.454,214.786 Z M805.636,219 L805.636,211.608 L807.33,211.608 L807.33,213.274 C807.792,212.168 808.646,211.412 809.948,211.468 L809.948,213.26 L809.85,213.26 C808.366,213.26 807.33,214.226 807.33,216.186 L807.33,219 L805.636,219 Z M811.446,210.474 L811.446,208.864 L813.266,208.864 L813.266,210.474 L811.446,210.474 Z M811.516,219 L811.516,211.608 L813.21,211.608 L813.21,219 L811.516,219 Z M815.8,219 L815.8,213.064 L814.862,213.064 L814.862,211.65 L815.8,211.65 L815.8,211.104 C815.8,210.292 816.01,209.676 816.402,209.284 C816.794,208.892 817.34,208.696 818.068,208.696 C818.656,208.696 819.062,208.78 819.44,208.892 L819.44,210.32 C819.104,210.208 818.81,210.138 818.446,210.138 C817.802,210.138 817.466,210.488 817.466,211.258 L817.466,211.664 L819.426,211.664 L819.426,213.064 L817.494,213.064 L817.494,219 L815.8,219 Z M820.784,219 L820.784,211.608 L822.478,211.608 L822.478,219 L820.784,219 Z M820.714,210.474 L820.714,208.864 L822.534,208.864 L822.534,210.474 L820.714,210.474 Z M828.106,219.168 C825.908,219.168 824.284,217.446 824.284,215.346 L824.284,215.318 C824.284,213.218 825.908,211.454 828.134,211.454 C829.52,211.454 830.388,211.972 831.088,212.728 L830.024,213.862 C829.506,213.316 828.96,212.938 828.12,212.938 C826.888,212.938 825.978,214.002 825.978,215.29 L825.978,215.318 C825.978,216.634 826.888,217.684 828.19,217.684 C828.988,217.684 829.576,217.32 830.108,216.774 L831.13,217.782 C830.402,218.594 829.548,219.168 828.106,219.168 Z M834.812,219.154 C833.426,219.154 832.194,218.356 832.194,216.872 L832.194,216.844 C832.194,215.248 833.44,214.464 835.246,214.464 C836.072,214.464 836.66,214.59 837.234,214.772 L837.234,214.59 C837.234,213.54 836.59,212.98 835.4,212.98 C834.574,212.98 833.958,213.162 833.286,213.442 L832.838,212.112 C833.65,211.748 834.448,211.51 835.624,211.51 C836.73,211.51 837.556,211.804 838.074,212.336 C838.62,212.868 838.872,213.652 838.872,214.618 L838.872,219 L837.22,219 L837.22,218.076 C836.716,218.678 835.946,219.154 834.812,219.154 Z M835.288,217.922 C836.408,217.922 837.262,217.278 837.262,216.34 L837.262,215.836 C836.828,215.668 836.254,215.542 835.582,215.542 C834.49,215.542 833.846,216.004 833.846,216.774 L833.846,216.802 C833.846,217.516 834.476,217.922 835.288,217.922 Z M843.31,219.126 C842.064,219.126 841.182,218.58 841.182,216.956 L841.182,213.064 L840.244,213.064 L840.244,211.608 L841.182,211.608 L841.182,209.578 L842.876,209.578 L842.876,211.608 L844.864,211.608 L844.864,213.064 L842.876,213.064 L842.876,216.69 C842.876,217.348 843.212,217.614 843.786,217.614 C844.164,217.614 844.5,217.53 844.836,217.362 L844.836,218.748 C844.416,218.986 843.954,219.126 843.31,219.126 Z M846.614,210.474 L846.614,208.864 L848.434,208.864 L848.434,210.474 L846.614,210.474 Z M846.684,219 L846.684,211.608 L848.378,211.608 L848.378,219 L846.684,219 Z M854.104,219.168 C851.85,219.168 850.184,217.446 850.184,215.346 L850.184,215.318 C850.184,213.204 851.864,211.454 854.132,211.454 C856.4,211.454 858.066,213.176 858.066,215.29 L858.066,215.318 C858.066,217.418 856.386,219.168 854.104,219.168 Z M854.132,217.684 C855.504,217.684 856.372,216.62 856.372,215.346 L856.372,215.318 C856.372,214.016 855.434,212.938 854.104,212.938 C852.746,212.938 851.878,214.002 851.878,215.29 L851.878,215.318 C851.878,216.606 852.816,217.684 854.132,217.684 Z M859.788,219 L859.788,211.608 L861.482,211.608 L861.482,212.742 C861.958,212.056 862.644,211.454 863.792,211.454 C865.458,211.454 866.424,212.574 866.424,214.282 L866.424,219 L864.73,219 L864.73,214.8 C864.73,213.652 864.156,212.994 863.148,212.994 C862.168,212.994 861.482,213.68 861.482,214.828 L861.482,219 L859.788,219 Z M814.19,235.168 C811.334,235.168 809.206,232.942 809.206,230.128 L809.206,230.1 C809.206,227.314 811.292,225.032 814.26,225.032 C816.066,225.032 817.158,225.662 818.096,226.558 L816.99,227.832 C816.206,227.104 815.366,226.614 814.246,226.614 C812.384,226.614 811.012,228.154 811.012,230.072 L811.012,230.1 C811.012,232.018 812.37,233.572 814.246,233.572 C815.45,233.572 816.22,233.096 817.06,232.312 L818.166,233.432 C817.144,234.496 816.024,235.168 814.19,235.168 Z M823.15,235.168 C820.896,235.168 819.23,233.446 819.23,231.346 L819.23,231.318 C819.23,229.204 820.91,227.454 823.178,227.454 C825.446,227.454 827.112,229.176 827.112,231.29 L827.112,231.318 C827.112,233.418 825.432,235.168 823.15,235.168 Z M823.178,233.684 C824.55,233.684 825.418,232.62 825.418,231.346 L825.418,231.318 C825.418,230.016 824.48,228.938 823.15,228.938 C821.792,228.938 820.924,230.002 820.924,231.29 L820.924,231.318 C820.924,232.606 821.862,233.684 823.178,233.684 Z M831.886,235.154 C830.15,235.154 828.456,233.768 828.456,231.318 L828.456,231.29 C828.456,228.84 830.122,227.454 831.886,227.454 C833.104,227.454 833.874,228.056 834.406,228.756 L834.406,224.78 L836.1,224.78 L836.1,235 L834.406,235 L834.406,233.768 C833.86,234.538 833.09,235.154 831.886,235.154 Z M832.292,233.684 C833.426,233.684 834.434,232.732 834.434,231.318 L834.434,231.29 C834.434,229.862 833.426,228.924 832.292,228.924 C831.13,228.924 830.164,229.82 830.164,231.29 L830.164,231.318 C830.164,232.746 831.144,233.684 832.292,233.684 Z M841.616,235.168 C839.474,235.168 837.822,233.614 837.822,231.332 L837.822,231.304 C837.822,229.19 839.32,227.454 841.434,227.454 C843.786,227.454 844.976,229.302 844.976,231.43 C844.976,231.584 844.962,231.738 844.948,231.906 L839.516,231.906 C839.698,233.11 840.552,233.782 841.644,233.782 C842.47,233.782 843.058,233.474 843.646,232.9 L844.64,233.782 C843.94,234.622 842.974,235.168 841.616,235.168 Z M839.502,230.786 L843.296,230.786 C843.184,229.694 842.54,228.84 841.42,228.84 C840.384,228.84 839.656,229.638 839.502,230.786 Z" id="Verification-Code" fill="#494B54"></path>
    </g>
</svg>